<?xml version="1.0" encoding="iso-8859-1"?>
<!-- Generator: Adobe Illustrator 19.0.0, SVG Export Plug-In . SVG Version: 6.00 Build 0)  -->
<svg version="1.1" id="Capa_1" xmlns="http://www.w3.org/2000/svg" xmlns:xlink="http://www.w3.org/1999/xlink" x="0px" y="0px"
	 viewBox="0 0 512.104 512.104" style="enable-background:new 0 0 512.104 512.104;" xml:space="preserve">
<g transform="translate(0 -1)">
	<g transform="translate(1 2)">
		<path style="fill:#A4C2F7;" d="M434.252,203.904c0,0-7.339,132.437-145.067,151.381c-11.314,1.514-22.718,2.256-34.133,2.219
			c-4.352,0-8.619-0.085-12.8-0.341c-7.139-0.26-14.259-0.887-21.333-1.877C83.191,336.341,75.852,203.904,75.852,203.904H434.252z"
			/>
		<path style="fill:#E3E7F2;" d="M408.652,203.904c0,0-7.339,132.437-145.067,151.381c-7.074,0.99-14.195,1.617-21.333,1.877
			c-7.139-0.26-14.259-0.887-21.333-1.877C83.191,336.341,75.852,203.904,75.852,203.904H408.652z"/>
		<path style="fill:#7FABFA;" d="M331.596,502.57H178.508c-2.631,0.051-5.142-1.1-6.82-3.127c-1.678-2.027-2.34-4.708-1.799-7.284
			l13.653-59.733c0.955-3.93,4.489-6.687,8.533-6.656h125.952c4.045-0.031,7.579,2.725,8.533,6.656l13.653,59.733
			c0.541,2.575-0.121,5.257-1.799,7.284C336.738,501.47,334.227,502.621,331.596,502.57z"/>
		<path style="fill:#A4C2F7;" d="M434.252,203.904c0,34.389-66.731,62.805-153.6,67.584c-8.363,0.427-16.896,0.683-25.6,0.683
			c-4.267,0-8.448-0.085-12.629-0.171h-0.341l-12.629-0.512c-86.869-4.779-153.6-33.195-153.6-67.584s66.731-62.805,153.6-67.584
			l12.629-0.512h0.341c4.181-0.085,8.363-0.171,12.629-0.171c8.704,0,17.237,0.256,25.6,0.683
			C367.521,141.098,434.252,169.514,434.252,203.904z"/>
		<path style="fill:#E3E7F2;" d="M408.652,203.904c0,34.389-66.731,62.805-153.6,67.584L242.423,272h-0.341l-12.629-0.512
			c-86.869-4.779-153.6-33.195-153.6-67.584s66.731-62.805,153.6-67.584l12.629-0.512h0.341l12.629,0.512
			C341.921,141.098,408.652,169.514,408.652,203.904z"/>
		<g>
			<path style="fill:#4482C3;" d="M396.219,191.104c-8.337-5.393-32.836-18.671-80.213-25.6c-2.244-0.363-4.54,0.197-6.365,1.554
				c-1.824,1.357-3.022,3.394-3.32,5.648c-0.682,4.658,2.537,8.987,7.194,9.677c44.058,6.468,66.014,18.287,73.387,23.04
				c2.561,1.655,5.81,1.819,8.524,0.429c2.714-1.39,4.48-4.122,4.634-7.168s-1.33-5.941-3.891-7.597L396.219,191.104z"/>
			<path style="fill:#4482C3;" d="M194.073,165.504c-47.326,6.938-71.842,20.224-80.213,25.6c-3.959,2.559-5.093,7.843-2.534,11.802
				c2.559,3.959,7.843,5.093,11.802,2.534c7.398-4.787,29.38-16.614,73.387-23.04c4.656-0.689,7.875-5.019,7.194-9.677
				c-0.297-2.246-1.486-4.277-3.299-5.635C198.595,165.729,196.312,165.158,194.073,165.504z"/>
		</g>
		<g>
			<path style="fill:#A4C2F7;" d="M289.185,355.285v87.552c-0.028,9.414-7.653,17.039-17.067,17.067h-34.133
				c-9.414-0.028-17.039-7.653-17.067-17.067v-87.552c7.074,0.99,14.195,1.617,21.333,1.877c4.181,0.256,8.448,0.341,12.8,0.341
				c2.901,0,5.803-0.085,8.533-0.171C272.149,357.116,280.695,356.432,289.185,355.285z"/>
			<path style="fill:#A4C2F7;" d="M280.652,67.37v204.117c-8.363,0.427-16.896,0.683-25.6,0.683c-4.267,0-8.448-0.085-12.629-0.171
				h-0.341l-12.629-0.512V67.37H280.652z"/>
		</g>
		<polygon style="fill:#D4E1F4;" points="255.052,67.37 255.052,271.488 242.423,272 242.081,272 229.452,271.488 229.452,67.37 		
			"/>
		<g>
			<path style="fill:#A4C2F7;" d="M297.719,50.304c0,23.564-19.103,42.667-42.667,42.667c-4.334-0.013-8.644-0.645-12.8-1.877
				c-17.783-5.632-29.868-22.136-29.868-40.789s12.085-35.157,29.868-40.789c4.156-1.232,8.466-1.864,12.8-1.877
				c11.316,0,22.168,4.495,30.17,12.497C293.223,28.135,297.719,38.988,297.719,50.304z"/>
			<path style="fill:#A4C2F7;" d="M305.996,502.57H178.508c-2.631,0.051-5.142-1.1-6.82-3.127c-1.678-2.027-2.34-4.708-1.799-7.284
				l13.653-59.733c0.955-3.93,4.489-6.687,8.533-6.656h100.352c4.045-0.031,7.579,2.725,8.533,6.656l13.653,59.733
				c0.541,2.575-0.121,5.257-1.799,7.284C311.138,501.47,308.627,502.621,305.996,502.57z"/>
		</g>
		<ellipse style="fill:#E3E7F2;" cx="242.252" cy="50.304" rx="29.867" ry="40.789"/>
		<path style="fill:#D4E1F4;" d="M263.585,355.285v87.552c-0.028,9.414-7.653,17.039-17.067,17.067h-8.533
			c-9.414-0.028-17.039-7.653-17.067-17.067v-85.504c2.731,0.085,5.632,0.171,8.533,0.171c4.352,0,8.619-0.085,12.8-0.341
			C249.39,356.902,256.511,356.275,263.585,355.285z"/>
	</g>
	<g transform="translate(1 17)">
		<path style="fill:#FFFFFF;" d="M229.452,121.32c-86.869,4.779-153.6,33.195-153.6,67.584c0,0,7.339,132.437,145.067,151.381
			v87.552c0,9.426,7.641,17.067,17.067,17.067h8.533V340.285c-137.728-18.944-145.067-151.381-145.067-151.381
			c0-30.925,53.956-57.02,128-65.434V121.32z"/>
		<path style="fill:#FFFFFF;" d="M183.543,417.426l-13.653,59.733c-0.541,2.575,0.121,5.257,1.799,7.284
			c1.678,2.027,4.189,3.178,6.82,3.127h25.6c-2.631,0.051-5.142-1.1-6.82-3.127c-1.678-2.027-2.34-4.708-1.799-7.284l13.653-59.733
			c0.955-3.93,4.489-6.687,8.533-6.656l-25.6,0C188.031,410.739,184.497,413.496,183.543,417.426z"/>
	</g>
	<g>
		<polygon style="fill:#FFFFFF;" points="179.474,496.037 290.407,496.037 332.63,496.037 332.63,513.104 290.407,513.104 
			179.474,513.104 		"/>
		<g>
			<path style="fill:#428DFF;" d="M253.799,510.629c0.766-0.82,1.373-1.775,1.792-2.816c0.434-1.027,0.666-2.128,0.683-3.243
				c0.02-3.467-2.059-6.601-5.261-7.931c-3.202-1.329-6.89-0.59-9.331,1.872l-1.024,1.28c-0.326,0.475-0.587,0.992-0.777,1.536
				c-0.248,0.482-0.418,1.001-0.503,1.536c-0.099,0.564-0.156,1.134-0.171,1.707c0.029,2.26,0.913,4.425,2.475,6.059
				C245.079,513.849,250.402,513.849,253.799,510.629z"/>
			<path style="fill:#428DFF;" d="M290.185,130.392v-40.03c15.823-14.152,21.271-36.601,13.696-56.432
				C296.307,14.1,277.28,1,256.052,1s-40.255,13.1-47.83,32.931s-2.126,42.279,13.696,56.432v40.03
				c-90.812,6.519-153.6,37.111-153.6,75.511c0,0.111,0,0.213,0,0.324c0.004,0.051,0.004,0.102,0,0.154
				c0.068,1.365,9.148,134.75,145.067,158.123v54.733h-20.309c-8.055-0.092-15.077,5.461-16.845,13.321l-13.653,59.733
				c-1.147,5.021,0.07,10.292,3.302,14.302c3.288,4.142,8.297,6.543,13.585,6.511h34.133c4.713,0,8.533-3.82,8.533-8.533
				s-3.821-8.533-8.533-8.533h-34.133v0.094c-0.085,0-0.154-0.043-0.23-0.043l13.841-59.785h20.309v8.533
				c0,14.138,11.462,25.6,25.6,25.6h34.133c14.138,0,25.6-11.462,25.6-25.6v-8.533h20.523l13.397,59.733h-50.765
				c-4.713,0-8.533,3.82-8.533,8.533s3.82,8.533,8.533,8.533h50.765c5.278,0.026,10.276-2.371,13.559-6.502
				c3.235-4.012,4.449-9.288,3.294-14.31l-13.653-59.733c-1.785-7.834-8.776-13.373-16.811-13.321h-20.309v-54.733
				C434.62,341.131,443.7,207.747,443.785,206.381c0-0.051,0-0.102,0-0.145s0-0.222,0-0.333
				C443.785,167.504,380.997,136.912,290.185,130.392z M426.719,205.827v0.29c-0.299,24.806-54.101,52.053-136.533,58.189V147.501
				C374.665,153.85,426.591,182.121,426.719,205.827z M256.052,18.17c18.851,0,34.133,15.282,34.133,34.133
				s-15.282,34.133-34.133,34.133s-34.133-15.282-34.133-34.133S237.201,18.17,256.052,18.17z M256.052,103.504
				c5.818-0.015,11.59-1.025,17.067-2.987V265.21c-2.756,0.102-5.453,0.256-8.269,0.307c-2.816,0.051-5.888,0.119-8.798,0.119
				c-5.803,0-11.477-0.128-17.067-0.333V100.517C244.462,102.479,250.234,103.489,256.052,103.504z M221.919,147.501v116.847
				c-81.707-6.093-136.218-33.374-136.533-58.249v-0.273C85.513,182.121,137.481,153.85,221.919,147.501z M281.652,444.837
				c0,4.713-3.82,8.533-8.533,8.533h-34.133c-4.713,0-8.533-3.82-8.533-8.533v-77.978c1.638,0.162,3.362,0.23,5.035,0.358
				c1.476,0.102,2.935,0.222,4.429,0.307c10.757,0.614,21.541,0.614,32.299,0c1.459-0.077,2.893-0.188,4.335-0.299
				c1.707-0.128,3.413-0.196,5.12-0.358L281.652,444.837z M289.025,348.828c-16.514,2.154-33.199,2.691-49.818,1.604
				c-5.538-0.358-10.957-0.853-16.128-1.604c-82.389-11.349-115.55-64.683-128.853-103.031
				c28.032,19.627,76.8,33.092,135.962,36.164c0.102,0,0.196,0.06,0.299,0.06s0.102,0,0.162,0
				c8.311,0.427,16.751,0.717,25.438,0.717c3.157,0,6.221,0,9.199-0.085c5.521-0.102,10.923-0.341,16.282-0.623h0.119
				c0.06,0,0.111,0,0.171,0c59.145-3.166,108.177-17.015,136.286-36.762C404.933,283.617,371.849,337.436,289.025,348.828z"/>
			<path style="fill:#428DFF;" d="M314.539,184.4c44.058,6.468,66.014,18.287,73.387,23.04c2.561,1.655,5.81,1.819,8.524,0.429
				c2.714-1.39,4.48-4.122,4.634-7.168c0.153-3.045-1.33-5.941-3.891-7.597c-8.337-5.393-32.836-18.671-80.213-25.6
				c-2.244-0.363-4.54,0.197-6.365,1.554c-1.824,1.357-3.022,3.394-3.32,5.648c-0.331,2.247,0.247,4.534,1.607,6.353
				C310.261,182.879,312.29,184.081,314.539,184.4z"/>
			<path style="fill:#428DFF;" d="M119.519,208.839c1.641-0.001,3.247-0.475,4.625-1.365c7.398-4.787,29.38-16.614,73.387-23.04
				c4.656-0.689,7.875-5.019,7.194-9.677c-0.3-2.253-1.499-4.289-3.323-5.645c-1.824-1.356-4.119-1.918-6.363-1.557
				c-47.326,6.938-71.842,20.224-80.213,25.6c-3.171,2.065-4.604,5.972-3.519,9.597
				C112.391,206.378,115.734,208.855,119.519,208.839z"/>
		</g>
	</g>
</g>
<g>
</g>
<g>
</g>
<g>
</g>
<g>
</g>
<g>
</g>
<g>
</g>
<g>
</g>
<g>
</g>
<g>
</g>
<g>
</g>
<g>
</g>
<g>
</g>
<g>
</g>
<g>
</g>
<g>
</g>
</svg>
